<svg xmlns="http://www.w3.org/2000/svg">

    <symbol id="trash" viewBox="0 0 16 16" >
        <g clip-path="url(#clip0_5661_2854)">
        <path d="M14 4.00011H10.6667V2.88677C10.651 2.45998 10.4668 2.05681 10.1544 1.76563C9.84197 1.47446 9.42684 1.31903 9.00001 1.33344H7.00001C6.57318 1.31903 6.15805 1.47446 5.84563 1.76563C5.53321 2.05681 5.34898 2.45998 5.33334 2.88677V4.00011H2.00001C1.8232 4.00011 1.65363 4.07034 1.52861 4.19537C1.40358 4.32039 1.33334 4.48996 1.33334 4.66677C1.33334 4.84358 1.40358 5.01315 1.52861 5.13818C1.65363 5.2632 1.8232 5.33344 2.00001 5.33344H2.66668V12.6668C2.66668 13.1972 2.87739 13.7059 3.25246 14.081C3.62754 14.4561 4.13624 14.6668 4.66668 14.6668H11.3333C11.8638 14.6668 12.3725 14.4561 12.7476 14.081C13.1226 13.7059 13.3333 13.1972 13.3333 12.6668V5.33344H14C14.1768 5.33344 14.3464 5.2632 14.4714 5.13818C14.5964 5.01315 14.6667 4.84358 14.6667 4.66677C14.6667 4.48996 14.5964 4.32039 14.4714 4.19537C14.3464 4.07034 14.1768 4.00011 14 4.00011ZM6.66668 2.88677C6.66668 2.78011 6.80668 2.66677 7.00001 2.66677H9.00001C9.19334 2.66677 9.33334 2.78011 9.33334 2.88677V4.00011H6.66668V2.88677ZM12 12.6668C12 12.8436 11.9298 13.0132 11.8047 13.1382C11.6797 13.2632 11.5102 13.3334 11.3333 13.3334H4.66668C4.48987 13.3334 4.3203 13.2632 4.19527 13.1382C4.07025 13.0132 4.00001 12.8436 4.00001 12.6668V5.33344H12V12.6668Z"/>
        </g>
        <defs>
        <clipPath id="clip0_5661_2854">
        <rect width="16" height="16" />
        </clipPath>
        </defs>
    </symbol>

    <symbol id="edit" viewBox="0 0 16 16" >
        <g clip-path="url(#clip0_5661_2853)">
        <path d="M12.6667 13.3333H3.33332C3.15651 13.3333 2.98694 13.4035 2.86192 13.5285C2.73689 13.6535 2.66666 13.8231 2.66666 13.9999C2.66666 14.1767 2.73689 14.3463 2.86192 14.4713C2.98694 14.5963 3.15651 14.6666 3.33332 14.6666H12.6667C12.8435 14.6666 13.013 14.5963 13.1381 14.4713C13.2631 14.3463 13.3333 14.1767 13.3333 13.9999C13.3333 13.8231 13.2631 13.6535 13.1381 13.5285C13.013 13.4035 12.8435 13.3333 12.6667 13.3333Z" />
        <path d="M3.33335 12H3.39335L6.17335 11.7467C6.47788 11.7163 6.7627 11.5821 6.98001 11.3667L12.98 5.36665C13.2129 5.12063 13.3387 4.79233 13.33 4.45368C13.3213 4.11503 13.1786 3.79366 12.9333 3.55999L11.1067 1.73332C10.8683 1.50938 10.5559 1.38089 10.2289 1.37229C9.90193 1.36368 9.5832 1.47557 9.33335 1.68665L3.33335 7.68665C3.11786 7.90396 2.98368 8.18879 2.95335 8.49332L2.66668 11.2733C2.6577 11.371 2.67037 11.4694 2.70379 11.5616C2.73721 11.6538 2.79055 11.7374 2.86001 11.8067C2.92231 11.8684 2.99619 11.9173 3.07741 11.9505C3.15864 11.9837 3.24561 12.0005 3.33335 12ZM10.18 2.66665L12 4.48665L10.6667 5.78665L8.88001 3.99999L10.18 2.66665ZM4.24668 8.60665L8.00001 4.87999L9.80001 6.67999L6.06668 10.4133L4.06668 10.6L4.24668 8.60665Z" />
        </g>
        <defs>
        <clipPath id="clip0_5661_2853">
        <rect width="16" height="16" />
        </clipPath>
        </defs>
    </symbol>

    <symbol id="bin" viewBox="0 0 24 24" >
        <path d="M5.755,20.283,4,8H20L18.245,20.283A2,2,0,0,1,16.265,22H7.735A2,2,0,0,1,5.755,20.283ZM21,4H16V3a1,1,0,0,0-1-1H9A1,1,0,0,0,8,3V4H3A1,1,0,0,0,3,6H21a1,1,0,0,0,0-2Z" />
    </symbol>

    <symbol id="add" viewBox="0 0 15 15">
        <path d="M7.5,0C3.364,0,0,3.364,0,7.5S3.364,15,7.5,15S15,11.636,15,7.5S11.636,0,7.5,0z M7.5,14C3.916,14,1,11.084,1,7.5  S3.916,1,7.5,1S14,3.916,14,7.5S11.084,14,7.5,14z"/><polygon points="8,3.5 7,3.5 7,7 3.5,7 3.5,8 7,8 7,11.5 8,11.5 8,8 11.5,8 11.5,7 8,7 "/>
	</symbol>

    <symbol id="added" viewBox="0 0 32 32">
        <path style="text-indent:0;text-align:start;line-height:normal;text-transform:none;block-progression:tb;-inkscape-font-specification:Bitstream Vera Sans" d="M 14 4 C 10.145852 4 7 7.1458513 7 11 C 7 13.408843 8.2311596 15.55212 10.09375 16.8125 C 6.5266132 18.342333 4 21.881262 4 26 L 6 26 C 6 21.569334 9.5693339 18 14 18 C 15.376046 18 16.65445 18.35784 17.78125 18.96875 C 16.671114 20.342565 16 22.103031 16 24 C 16 28.406433 19.593567 32 24 32 C 28.406433 32 32 28.406433 32 24 C 32 19.593567 28.406433 16 24 16 C 22.252849 16 20.630732 16.574679 19.3125 17.53125 C 18.870028 17.253247 18.392372 17.020656 17.90625 16.8125 C 19.76884 15.55212 21 13.408843 21 11 C 21 7.1458513 17.854148 4 14 4 z M 14 6 C 16.773268 6 19 8.2267317 19 11 C 19 13.773268 16.773268 16 14 16 C 11.226732 16 9 13.773268 9 11 C 9 8.2267317 11.226732 6 14 6 z M 24 18 C 27.325553 18 30 20.674447 30 24 C 30 27.325553 27.325553 30 24 30 C 20.674447 30 18 27.325553 18 24 C 18 20.674447 20.674447 18 24 18 z M 23 20 L 23 23 L 20 23 L 20 25 L 23 25 L 23 28 L 25 28 L 25 25 L 28 25 L 28 23 L 25 23 L 25 20 L 23 20 z" color="#000" overflow="visible" font-family="Bitstream Vera Sans"/>
	</symbol>

</svg>
